{"title":"Phantom (2015) Hindi DVDScr x264 - Exclusive","uid":12304850,"size":735323692,"categoryP":"video","categoryS":"movies","magnet":"?xt=urn:btih:749550fe439d38a3d5d5ee5e3e504d1f31314e7e&amp;dn=Phantom+%282015%29+Hindi+DVDScr+x264+-+Exclusive&amp;tr=udp%3A%2F%2Ftracker.openbittorrent.com%3A80&amp;tr=udp%3A%2F%2Fopen.demonii.com%3A1337&amp;tr=udp%3A%2F%2Ftracker.coppersurfer.tk%3A6969&amp;tr=udp%3A%2F%2Fexodus.desync.com%3A6969","seeders":2,"leechers":2,"uploader":"tykoon123","files":1,"time":1440776552,"description":"Screens: &lt;a href=&quot;\nhttp://www.imgpuppy.com/images/2015/08/28/rN7rsHF.jpg&quot; rel=&quot;nofollow&quot; target=&quot;_NEW&quot;&gt;\nhttp://www.imgpuppy.com/images/2015/08/28/rN7rsHF.jpg&lt;/a&gt;\n\n[* Year ].............: [ (2015)\n[* IMDB Link ]........: [ http://www.imdb.com/title/tt3469244/\n[* Gener ]............: [ Action, Drama, Thriller\n[* Cast ].............: [ Saif Ali Khan | Katrina Kaif | Rajesh Tailang\n[* Language ].........: [ Hindi\n\nFormat                      : Matroska\nFormat version              : Version 4 / Version 2\nFile size                   : 701 MiB\nDuration                    : 2h 14mn\nOverall bit rate            : 731 Kbps\n\n\n\n[ * Video ]\n\nFormat                      : AVC\nFormat/Info                 : Advanced Video Codec\nFormat profile              : &lt;a class=&quot;__cf_email__&quot; href=&quot;/cdn-cgi/l/email-protection&quot; data-cfemail=&quot;eba3828c83aba7d8c5da&quot;&gt;[email&amp;#160;protected]&lt;/a&gt;&lt;script data-cfhash='f9e31' type=&quot;text/javascript&quot;&gt;\n/* &lt;![CDATA[ */!function(){try{var t=&quot;currentScript&quot;in document?document.currentScript:function(){for(var t=document.getElementsByTagName(&quot;script&quot;),e=t.length;e--;)if(t[e].getAttribute(&quot;data-cfhash&quot;))return t[e]}();if(t&amp;&amp;t.previousSibling){var e,r,n,i,c=t.previousSibling,a=c.getAttribute(&quot;data-cfemail&quot;);if(a){for(e=&quot;&quot;,r=parseInt(a.substr(0,2),16),n=2;a.length-n;n+=2)i=parseInt(a.substr(n,2),16)^r,e+=String.fromCharCode(i);e=document.createTextNode(e),c.parentNode.replaceChild(e,c)}t.parentNode.removeChild(t);}}catch(u){}}()/* ]]&gt; */&lt;/script&gt;\nFormat settings, CABAC      : Yes\nFormat settings, ReFrames   : 4 frames\nCodec ID                    : V_MPEG4/ISO/AVC\nDuration                    : 2h 14mn\nBit rate                    : 617 Kbps\nWidth                       : 640 pixels\nHeight                      : 272 pixels\nDisplay aspect ratio        : 2.35:1\nFrame rate mode             : Constant\nFrame rate                  : 25.000 fps\nColor space                 : YUV\nChroma subsampling          : 4:2:0\nBit depth                   : 8 bits\nScan type                   : Progressive\nBits/(Pixel*Frame)          : 0.142\nStream size                 : 580 MiB (83%)\nWriting library             : x264\n\n\n[ * Audio ]\n\nFormat                      : MPEG Audio\nFormat version              : Version 1\nFormat profile              : Layer 2\nCodec ID                    : A_MPEG/L2\nCodec ID/Hint               : MP2\nDuration                    : 2h 14mn\nBit rate mode               : Constant\nBit rate                    : 112 Kbps\nChannel(s)                  : 2 channels\nSampling rate               : 48.0 KHz\nCompression mode            : Lossy\nStream size                 : 107 MiB (15%)\nDefault                     : Yes\nForced                      : No\n\nScreens: &lt;a href=&quot;\nhttp://www.imgpuppy.com/image/MpO&quot; rel=&quot;nofollow&quot; target=&quot;_NEW&quot;&gt;\nhttp://www.imgpuppy.com/image/MpO&lt;/a&gt; &lt;a href=&quot;\nhttp://www.imgpuppy.com/image/QyU&quot; rel=&quot;nofollow&quot; target=&quot;_NEW&quot;&gt;\nhttp://www.imgpuppy.com/image/QyU&lt;/a&gt; &lt;a href=&quot;\nhttp://www.imgpuppy.com/image/ZE2&quot; rel=&quot;nofollow&quot; target=&quot;_NEW&quot;&gt;\nhttp://www.imgpuppy.com/image/ZE2&lt;/a&gt; &lt;a href=&quot;\nhttp://www.imgpuppy.com/image/emp&quot; rel=&quot;nofollow&quot; target=&quot;_NEW&quot;&gt;\nhttp://www.imgpuppy.com/image/emp&lt;/a&gt; &lt;a href=&quot;\nhttp://www.imgpuppy.com/image/iMI&quot; rel=&quot;nofollow&quot; target=&quot;_NEW&quot;&gt;\nhttp://www.imgpuppy.com/image/iMI&lt;/a&gt; &lt;a href=&quot;\nhttp://www.imgpuppy.com/image/o8i&quot; rel=&quot;nofollow&quot; target=&quot;_NEW&quot;&gt;\nhttp://www.imgpuppy.com/image/o8i&lt;/a&gt; &lt;a href=&quot;\nhttp://www.imgpuppy.com/image/zxg&quot; rel=&quot;nofollow&quot; target=&quot;_NEW&quot;&gt;\nhttp://www.imgpuppy.com/image/zxg&lt;/a&gt;","torrent":{"xt":"urn:btih:749550fe439d38a3d5d5ee5e3e504d1f31314e7e","amp;dn":"Phantom+%282015%29+Hindi+DVDScr+x264+-+Exclusive","amp;tr":["udp%3A%2F%2Ftracker.openbittorrent.com%3A80","udp%3A%2F%2Fopen.demonii.com%3A1337","udp%3A%2F%2Ftracker.coppersurfer.tk%3A6969","udp%3A%2F%2Fexodus.desync.com%3A6969"],"infoHash":"749550fe439d38a3d5d5ee5e3e504d1f31314e7e","infoHashBuffer":{"type":"Buffer","data":[116,149,80,254,67,157,56,163,213,213,238,94,62,80,77,31,49,49,78,126]},"announce":[],"urlList":[]}}